<svg version="1.1" id="Layer_1" xmlns="http://www.w3.org/2000/svg" xmlns:xlink="http://www.w3.org/1999/xlink" x="0px" y="0px"
	 width="100%" viewBox="0 0 512 512" enable-background="new 0 0 512 512" xml:space="preserve">
<path fill="#000000" opacity="1.000000" stroke="none" 
	d="
M291.000000,513.000000 
	C194.023544,513.000000 97.547081,513.000000 1.035313,513.000000 
	C1.035313,342.398529 1.035313,171.797028 1.035313,1.097768 
	C171.559799,1.097768 342.119690,1.097768 512.839783,1.097768 
	C512.839783,171.666550 512.839783,342.333252 512.839783,513.000000 
	C439.130341,513.000000 365.315155,513.000000 291.000000,513.000000 
M160.004700,310.485443 
	C145.086960,330.382385 130.169220,350.279327 114.723160,370.880920 
	C128.376328,370.880920 140.986725,371.018951 153.588043,370.742737 
	C155.647568,370.697540 158.366837,369.353943 159.602097,367.719421 
	C186.688309,331.878204 213.584213,295.893250 240.614761,260.009796 
	C242.328629,257.734589 242.387497,256.334320 240.649963,254.027985 
	C213.617538,218.145935 186.667175,182.201920 159.791061,146.202606 
	C157.986221,143.785095 156.084076,143.003204 153.141800,143.048492 
	C141.818283,143.222778 130.490479,143.110321 119.164314,143.131989 
	C117.958229,143.134308 116.752487,143.314926 114.969864,143.459656 
	C143.603516,181.645355 171.825150,219.281586 200.107391,256.998657 
	C186.766968,274.794617 173.601852,292.356689 160.004700,310.485443 
M271.127716,345.807220 
	C271.127716,354.064697 271.127716,362.322174 271.127716,370.561737 
	C314.165802,370.561737 356.535095,370.561737 398.823364,370.561737 
	C398.823364,361.012848 398.823364,351.778290 398.823364,342.230255 
	C396.855927,342.230255 395.218475,342.230255 393.581024,342.230255 
	C372.934052,342.230255 352.287079,342.230255 331.640106,342.230255 
	C312.991241,342.230255 294.342224,342.202118 275.693665,342.274475 
	C273.856659,342.281586 270.947571,341.047729 271.127716,345.807220 
z"/>
<path fill="#FDFDFD" opacity="1.000000" stroke="none" 
	d="
M160.220734,310.202118 
	C173.601852,292.356689 186.766968,274.794617 200.107391,256.998657 
	C171.825150,219.281586 143.603516,181.645355 114.969864,143.459656 
	C116.752487,143.314926 117.958229,143.134308 119.164314,143.131989 
	C130.490479,143.110321 141.818283,143.222778 153.141800,143.048492 
	C156.084076,143.003204 157.986221,143.785095 159.791061,146.202606 
	C186.667175,182.201920 213.617538,218.145935 240.649963,254.027985 
	C242.387497,256.334320 242.328629,257.734589 240.614761,260.009796 
	C213.584213,295.893250 186.688309,331.878204 159.602097,367.719421 
	C158.366837,369.353943 155.647568,370.697540 153.588043,370.742737 
	C140.986725,371.018951 128.376328,370.880920 114.723160,370.880920 
	C130.169220,350.279327 145.086960,330.382385 160.220734,310.202118 
z"/>
<path fill="#FAFAFA" opacity="1.000000" stroke="none" 
	d="
M271.128357,345.339233 
	C270.947571,341.047729 273.856659,342.281586 275.693665,342.274475 
	C294.342224,342.202118 312.991241,342.230255 331.640106,342.230255 
	C352.287079,342.230255 372.934052,342.230255 393.581024,342.230255 
	C395.218475,342.230255 396.855927,342.230255 398.823364,342.230255 
	C398.823364,351.778290 398.823364,361.012848 398.823364,370.561737 
	C356.535095,370.561737 314.165802,370.561737 271.127716,370.561737 
	C271.127716,362.322174 271.127716,354.064697 271.128357,345.339233 
z"/>
</svg>